<svg width="9" height="9" viewBox="0 0 9 9" fill="none" xmlns="http://www.w3.org/2000/svg">
<path d="M8.5 4.86036C8.42994 5.61851 8.14541 6.34102 7.6797 6.94335C7.214 7.54569 6.58638 8.00294 5.87029 8.26159C5.1542 8.52025 4.37925 8.56962 3.63613 8.40392C2.893 8.23822 2.21244 7.86431 1.67406 7.32594C1.13569 6.78756 0.76178 6.107 0.596081 5.36387C0.430382 4.62075 0.479749 3.8458 0.738406 3.12971C0.997063 2.41362 1.45431 1.786 2.05665 1.3203C2.65898 0.854592 3.3815 0.570062 4.13964 0.5C3.69577 1.1005 3.48218 1.84038 3.53771 2.58505C3.59324 3.32973 3.91421 4.02974 4.44224 4.55776C4.97026 5.08579 5.67027 5.40676 6.41495 5.46229C7.15962 5.51782 7.8995 5.30423 8.5 4.86036Z" fill="#FBFBFB"/>
</svg>
