<svg width="30" height="30" viewBox="0 0 30 30" fill="none" xmlns="http://www.w3.org/2000/svg">
<path d="M20.5192 11.525C25.1827 10.9069 31.6113 10.9099 15.7637 16.7843C0.80543 21.8648 3.13822 18.2626 8.48722 15.6555C6.79903 16.2436 3.52924 17.6713 3.77476 19.2318C4.11573 21.3991 13.9069 18.5564 16.1113 17.8077C18.0795 17.1393 27.0017 14.0649 26.4876 11.5174C26.0442 9.82404 22.0014 10.9338 20.283 11.6052L20.5192 11.525Z" fill="white" stroke="white" stroke-width="0.5"/>
<path fill-rule="evenodd" clip-rule="evenodd" d="M21.8417 12.8299C20.6508 9.07527 16.6732 6.9554 12.9149 8.13463C9.07022 9.34095 7.00627 13.6141 8.3793 17.4024C9.72514 21.1157 13.8183 23.0725 17.5275 21.7151C21.1498 20.3895 23.0079 16.5067 21.8417 12.8299ZM13.1956 8.96126C16.4845 7.93927 19.9295 9.66675 21.0797 12.9131C22.2453 16.2032 20.5614 19.798 17.2868 21.0066C13.9266 22.2468 10.1419 20.4105 9.03436 17.0042C7.94087 13.6411 9.81844 10.0107 13.1956 8.96126Z" fill="white" stroke="white" stroke-width="0.5"/>
</svg>
