<svg width="40" height="40" viewBox="0 0 40 40" fill="none" xmlns="http://www.w3.org/2000/svg">
<rect width="40" height="40" rx="20" fill="#D0F700"/>
<g clip-path="url(#clip0_215_1086)">
<path d="M27.3337 24.6667C27.3337 25.0203 27.1932 25.3594 26.9431 25.6095C26.6931 25.8595 26.3539 26 26.0003 26H14.0003C13.6467 26 13.3076 25.8595 13.0575 25.6095C12.8075 25.3594 12.667 25.0203 12.667 24.6667V17.3333C12.667 16.9797 12.8075 16.6406 13.0575 16.3905C13.3076 16.1405 13.6467 16 14.0003 16H16.667L18.0003 14H22.0003L23.3337 16H26.0003C26.3539 16 26.6931 16.1405 26.9431 16.3905C27.1932 16.6406 27.3337 16.9797 27.3337 17.3333V24.6667Z" stroke="#141414" stroke-width="1.5" stroke-linecap="round" stroke-linejoin="round"/>
<path d="M19.9997 23.3333C21.4724 23.3333 22.6663 22.1394 22.6663 20.6667C22.6663 19.1939 21.4724 18 19.9997 18C18.5269 18 17.333 19.1939 17.333 20.6667C17.333 22.1394 18.5269 23.3333 19.9997 23.3333Z" stroke="#141414" stroke-width="1.5" stroke-linecap="round" stroke-linejoin="round"/>
</g>
<defs>
<clipPath id="clip0_215_1086">
<rect width="16" height="16" fill="white" transform="translate(12 12)"/>
</clipPath>
</defs>
</svg>
