<svg width="704" height="240" viewBox="0 0 704 240" fill="none" xmlns="http://www.w3.org/2000/svg">
<rect x="0.5" y="0.5" width="703" height="239" rx="9.5" stroke="#C2C2C2" stroke-dasharray="4 4"/>
<path d="M355.333 86.8333H342C341.116 86.8333 340.268 87.1844 339.643 87.8096C339.018 88.4347 338.667 89.2825 338.667 90.1666V116.833C338.667 117.717 339.018 118.565 339.643 119.19C340.268 119.815 341.116 120.167 342 120.167H362C362.884 120.167 363.732 119.815 364.357 119.19C364.982 118.565 365.333 117.717 365.333 116.833V96.8333L355.333 86.8333Z" stroke="#A7AFAB" stroke-width="2" stroke-linecap="round" stroke-linejoin="round"/>
<path d="M355.333 86.8333V96.8333H365.333" stroke="#A7AFAB" stroke-width="2" stroke-linecap="round" stroke-linejoin="round"/>
<path d="M352 113.5V103.5" stroke="#A7AFAB" stroke-width="2" stroke-linecap="round" stroke-linejoin="round"/>
<path d="M347 108.5H357" stroke="#A7AFAB" stroke-width="2" stroke-linecap="round" stroke-linejoin="round"/>
<path d="M318.538 141.412V153.689H317.239V141.412H318.538ZM311.989 142.328C313.808 142.328 315.147 143.996 315.147 146.621C315.147 149.26 313.808 150.928 311.989 150.928C310.144 150.928 308.817 149.26 308.817 146.621C308.817 143.996 310.144 142.328 311.989 142.328ZM311.989 143.49C310.854 143.49 310.075 144.693 310.075 146.621C310.075 148.562 310.854 149.766 311.989 149.766C313.11 149.766 313.89 148.562 313.89 146.621C313.89 144.693 313.11 143.49 311.989 143.49ZM326.919 142.588V150.641H321.177V142.588H326.919ZM322.462 143.613V149.588H325.661V143.613H322.462ZM330.638 141.412V153.689H329.339V141.412H330.638ZM337.104 145.021C337.104 147.072 338.444 149.191 340.331 149.998L339.62 151.01C338.178 150.374 337.029 149.027 336.462 147.387C335.895 149.137 334.739 150.627 333.317 151.324L332.565 150.299C334.411 149.438 335.778 147.127 335.792 145.021V143.723H332.989V142.643H339.894V143.723H337.104V145.021ZM342.737 141.412V153.662H341.438V141.412H342.737ZM352.403 144.01C352.403 145.459 353.593 146.744 355.452 147.264L354.851 148.289C353.415 147.879 352.335 147.011 351.774 145.883C351.241 147.113 350.175 148.063 348.712 148.521L348.083 147.496C349.956 146.949 351.118 145.555 351.118 144.01V143.818H348.452V142.779H351.118V141.357H352.417V142.779H355.069V143.818H352.403V144.01ZM358.323 141.412V148.645H357.024V145.842H354.728V144.775H357.024V141.412H358.323ZM358.323 149.232V153.512H350.243V149.232H358.323ZM351.528 150.285V152.459H357.052V150.285H351.528ZM371.407 148.617V149.643H366.403V153.662H365.132V149.643H360.196V148.617H371.407ZM362.876 141.904V143.504H368.7V141.904H369.999V147.223H361.591V141.904H362.876ZM362.876 146.184H368.7V144.543H362.876V146.184ZM381.853 141.412V146.375H383.821V147.455H381.853V153.662H380.567V141.412H381.853ZM379.501 143.326V144.393H372.241V143.326H375.263V141.576H376.562V143.326H379.501ZM375.919 145.295C377.669 145.295 378.954 146.471 378.968 148.139C378.954 149.82 377.669 150.982 375.919 150.996C374.155 150.982 372.87 149.82 372.87 148.139C372.87 146.471 374.155 145.295 375.919 145.295ZM375.919 146.361C374.88 146.361 374.101 147.086 374.114 148.139C374.101 149.205 374.88 149.916 375.919 149.902C376.958 149.916 377.724 149.205 377.724 148.139C377.724 147.086 376.958 146.361 375.919 146.361ZM394.595 141.412V153.662H393.282V141.412H394.595ZM390.944 142.725C390.944 146.307 389.413 149.424 385.216 151.434L384.532 150.381C387.793 148.829 389.379 146.621 389.632 143.764H385.12V142.725H390.944Z" fill="#A7AFAB"/>
</svg>
