<svg width="367" height="367" viewBox="0 0 367 367" fill="none" xmlns="http://www.w3.org/2000/svg">
<path d="M249.454 141.279C305.544 133.846 382.863 133.881 192.259 204.534C12.3528 265.639 40.4099 222.314 104.743 190.958C84.4393 198.03 45.1127 215.202 48.0656 233.971C52.1666 260.037 169.927 225.848 196.44 216.843C220.112 208.803 327.421 171.828 321.239 141.188C315.905 120.821 267.281 134.168 246.614 142.244L249.454 141.279Z" fill="#D0F700"/>
<path fill-rule="evenodd" clip-rule="evenodd" d="M265.362 156.973C251.038 111.816 203.198 86.3195 157.996 100.502C111.756 115.011 86.9323 166.405 103.446 211.968C119.633 256.629 168.863 280.164 213.473 263.838C257.04 247.895 279.388 201.195 265.362 156.973ZM161.373 110.444C200.93 98.1527 242.363 118.93 256.196 157.974C270.216 197.546 249.964 240.78 210.579 255.316C170.164 270.232 124.645 248.147 111.325 207.179C98.173 166.73 120.755 123.066 161.373 110.444Z" fill="#D0F700" stroke="#D0F700"/>
</svg>
