<svg width="64" height="64" viewBox="0 0 64 64" fill="none" xmlns="http://www.w3.org/2000/svg">
<path d="M9.59961 25.67C9.59961 40.078 21.4946 60 31.9996 60C41.8896 60 54.3996 40.075 54.3996 25.67C54.3996 11.266 44.3706 4 31.9996 4C19.6286 4 9.59961 11.264 9.59961 25.67Z" fill="#5EE05E"/>
<path d="M38.135 35.3352C39.4763 33.9924 41.132 33.0065 42.9516 32.4672C44.7712 31.9278 46.6968 31.8522 48.5531 32.2472C49.3231 35.8902 48.2941 39.8372 45.4651 42.6652C44.1238 44.0079 42.4681 44.9938 40.6485 45.5332C38.8289 46.0725 36.9033 46.1481 35.0471 45.7532C34.2771 42.1102 35.307 38.1632 38.135 35.3352ZM15.4461 32.4382C19.0891 31.6792 23.0361 32.6942 25.8641 35.4832C27.2036 36.796 28.1892 38.4264 28.7291 40.2226C29.269 42.0188 29.3457 43.9224 28.9521 45.7562C25.3101 46.5162 21.3621 45.5012 18.5341 42.7122C17.1944 41.3993 16.2087 39.7687 15.6687 37.9723C15.1288 36.1759 15.0522 34.2721 15.4461 32.4382Z" fill="#2C3135"/>
</svg>
