<svg width="367" height="367" viewBox="0 0 367 367" fill="none" xmlns="http://www.w3.org/2000/svg">
<path d="M249.454 141.279C305.544 133.845 382.863 133.88 192.259 204.534C12.3538 265.641 40.4105 222.316 104.744 190.959C84.4398 198.032 45.1133 215.204 48.0664 233.973C52.1675 260.039 169.928 225.849 196.44 216.844C220.112 208.804 327.421 171.827 321.239 141.188C315.905 120.821 267.281 134.168 246.614 142.244L249.454 141.279Z" fill="#D0F700"/>
<path fill-rule="evenodd" clip-rule="evenodd" d="M265.362 156.973C251.038 111.816 203.198 86.3201 157.996 100.503C111.756 115.012 86.9325 166.406 103.447 211.969C119.634 256.63 168.864 280.164 213.474 263.839C257.041 247.895 279.388 201.195 265.362 156.973ZM161.373 110.445C200.929 98.1533 242.363 118.93 256.196 157.974C270.217 197.546 249.964 240.78 210.58 255.317C170.165 270.233 124.646 248.149 111.325 207.181C98.1731 166.731 120.755 123.067 161.373 110.445Z" fill="#D0F700" stroke="#D0F700"/>
<path d="M80.3354 180.622C80.3354 179.998 80.2274 179.41 80.0114 178.858C79.7954 178.282 79.4714 177.778 79.0394 177.346C78.6314 176.914 78.1394 176.566 77.5634 176.302C76.9874 176.038 76.3394 175.906 75.6194 175.906H50.9234C50.2274 175.906 49.5794 176.026 48.9794 176.266C48.3794 176.482 47.8634 176.806 47.4314 177.238C46.9994 177.67 46.6514 178.198 46.3874 178.822C46.1474 179.422 46.0274 180.106 46.0274 180.874V186.85C46.0274 187.57 46.1474 188.23 46.3874 188.83C46.6514 189.406 46.9994 189.91 47.4314 190.342C47.8874 190.774 48.4154 191.11 49.0154 191.35C49.6154 191.566 50.2634 191.674 50.9594 191.674H75.6194C76.1714 191.674 76.7234 191.554 77.2754 191.314C77.8514 191.074 78.3674 190.738 78.8234 190.306C79.2794 189.874 79.6394 189.358 79.9034 188.758C80.1914 188.158 80.3354 187.498 80.3354 186.778H85.3754V187.498C85.3754 188.626 85.1714 189.742 84.7634 190.846C84.3554 191.95 83.7794 192.946 83.0354 193.834C82.3154 194.698 81.4394 195.406 80.4074 195.958C79.3754 196.486 78.2354 196.75 76.9874 196.75H49.0154C47.9114 196.75 46.8674 196.546 45.8834 196.138C44.8994 195.706 44.0354 195.13 43.2914 194.41C42.5714 193.666 41.9954 192.802 41.5634 191.818C41.1554 190.834 40.9514 189.79 40.9514 188.686V178.894C40.9514 177.766 41.1554 176.722 41.5634 175.762C41.9954 174.778 42.5714 173.926 43.2914 173.206C44.0354 172.462 44.8994 171.886 45.8834 171.478C46.8674 171.046 47.9114 170.83 49.0154 170.83H76.9874C78.2354 170.83 79.3754 171.106 80.4074 171.658C81.4394 172.186 82.3154 172.882 83.0354 173.746C83.7794 174.61 84.3554 175.582 84.7634 176.662C85.1714 177.742 85.3754 178.822 85.3754 179.902V180.622H80.3354ZM124.371 196.75H96.6512C95.5472 196.75 94.5032 196.546 93.5192 196.138C92.5592 195.706 91.7072 195.13 90.9632 194.41C90.2432 193.666 89.6672 192.814 89.2352 191.854C88.8272 190.87 88.6232 189.826 88.6232 188.722V178.858C88.6232 177.754 88.8272 176.722 89.2352 175.762C89.6672 174.778 90.2432 173.926 90.9632 173.206C91.7072 172.462 92.5592 171.886 93.5192 171.478C94.5032 171.046 95.5472 170.83 96.6512 170.83H124.371C125.475 170.83 126.507 171.046 127.467 171.478C128.451 171.886 129.303 172.462 130.023 173.206C130.767 173.926 131.343 174.778 131.751 175.762C132.183 176.722 132.399 177.754 132.399 178.858V188.722C132.399 189.826 132.183 190.87 131.751 191.854C131.343 192.814 130.767 193.666 130.023 194.41C129.303 195.13 128.451 195.706 127.467 196.138C126.507 196.546 125.475 196.75 124.371 196.75ZM127.323 186.85V180.766C127.323 180.118 127.203 179.506 126.963 178.93C126.747 178.33 126.435 177.814 126.027 177.382C125.619 176.926 125.115 176.566 124.515 176.302C123.939 176.038 123.303 175.906 122.607 175.906H98.6312C97.9112 175.906 97.2512 176.026 96.6512 176.266C96.0512 176.506 95.5352 176.842 95.1032 177.274C94.6712 177.706 94.3232 178.222 94.0592 178.822C93.8192 179.398 93.6992 180.034 93.6992 180.73V186.886C93.6992 187.534 93.8072 188.146 94.0232 188.722C94.2632 189.298 94.5992 189.814 95.0312 190.27C95.4632 190.702 95.9672 191.05 96.5432 191.314C97.1432 191.554 97.8032 191.674 98.5232 191.674H122.427C123.171 191.674 123.843 191.554 124.443 191.314C125.043 191.05 125.559 190.702 125.991 190.27C126.423 189.814 126.747 189.298 126.963 188.722C127.203 188.122 127.323 187.498 127.323 186.85ZM174.767 179.902C174.767 179.47 174.671 179.014 174.479 178.534C174.287 178.054 173.999 177.622 173.615 177.238C173.231 176.83 172.739 176.506 172.139 176.266C171.539 176.002 170.843 175.87 170.051 175.87L144.131 175.906C143.603 175.906 143.099 175.978 142.619 176.122C142.163 176.266 141.755 176.482 141.395 176.77C141.035 177.034 140.747 177.37 140.531 177.778C140.315 178.186 140.207 178.666 140.207 179.218C140.207 180.778 141.575 181.558 144.311 181.558L171.671 181.522C172.823 181.522 173.891 181.666 174.875 181.954C175.859 182.242 176.723 182.686 177.467 183.286C178.211 183.886 178.787 184.642 179.195 185.554C179.627 186.442 179.843 187.486 179.843 188.686C179.843 189.79 179.627 190.834 179.195 191.818C178.787 192.802 178.211 193.666 177.467 194.41C176.747 195.13 175.895 195.706 174.911 196.138C173.951 196.546 172.907 196.75 171.779 196.75H143.699C142.451 196.75 141.311 196.486 140.279 195.958C139.271 195.406 138.395 194.698 137.651 193.834C136.907 192.97 136.331 191.998 135.923 190.918C135.515 189.838 135.311 188.758 135.311 187.678H140.387C140.387 188.11 140.471 188.566 140.639 189.046C140.807 189.502 141.071 189.934 141.431 190.342C141.815 190.726 142.307 191.05 142.907 191.314C143.531 191.554 144.275 191.674 145.139 191.674H170.771C171.347 191.674 171.887 191.59 172.391 191.422C172.895 191.23 173.327 190.99 173.687 190.702C174.047 190.39 174.323 190.042 174.515 189.658C174.731 189.25 174.839 188.83 174.839 188.398C174.839 187.462 174.479 186.862 173.759 186.598C173.063 186.334 172.067 186.202 170.771 186.202H143.807C142.703 186.202 141.635 186.058 140.603 185.77C139.571 185.458 138.659 185.002 137.867 184.402C137.099 183.778 136.475 183.01 135.995 182.098C135.539 181.186 135.311 180.118 135.311 178.894C135.311 177.766 135.515 176.722 135.923 175.762C136.355 174.778 136.931 173.926 137.651 173.206C138.395 172.462 139.259 171.886 140.243 171.478C141.227 171.046 142.271 170.83 143.375 170.83H171.455C172.703 170.83 173.843 171.106 174.875 171.658C175.907 172.186 176.783 172.882 177.503 173.746C178.247 174.61 178.823 175.582 179.231 176.662C179.639 177.742 179.843 178.822 179.843 179.902H174.767ZM228.845 170.83V196.75H223.769V177.814L206.309 196.75H205.985L188.525 177.85V196.75H183.449V170.83H189.461L206.165 188.83L222.869 170.83H228.845ZM268.055 196.75H240.335C239.231 196.75 238.187 196.546 237.203 196.138C236.243 195.706 235.391 195.13 234.647 194.41C233.927 193.666 233.351 192.814 232.919 191.854C232.511 190.87 232.307 189.826 232.307 188.722V178.858C232.307 177.754 232.511 176.722 232.919 175.762C233.351 174.778 233.927 173.926 234.647 173.206C235.391 172.462 236.243 171.886 237.203 171.478C238.187 171.046 239.231 170.83 240.335 170.83H268.055C269.159 170.83 270.191 171.046 271.151 171.478C272.135 171.886 272.987 172.462 273.707 173.206C274.451 173.926 275.027 174.778 275.435 175.762C275.867 176.722 276.083 177.754 276.083 178.858V188.722C276.083 189.826 275.867 190.87 275.435 191.854C275.027 192.814 274.451 193.666 273.707 194.41C272.987 195.13 272.135 195.706 271.151 196.138C270.191 196.546 269.159 196.75 268.055 196.75ZM271.007 186.85V180.766C271.007 180.118 270.887 179.506 270.647 178.93C270.431 178.33 270.119 177.814 269.711 177.382C269.303 176.926 268.799 176.566 268.199 176.302C267.623 176.038 266.987 175.906 266.291 175.906H242.315C241.595 175.906 240.935 176.026 240.335 176.266C239.735 176.506 239.219 176.842 238.787 177.274C238.355 177.706 238.007 178.222 237.743 178.822C237.503 179.398 237.383 180.034 237.383 180.73V186.886C237.383 187.534 237.491 188.146 237.707 188.722C237.947 189.298 238.283 189.814 238.715 190.27C239.147 190.702 239.651 191.05 240.227 191.314C240.827 191.554 241.487 191.674 242.207 191.674H266.111C266.855 191.674 267.527 191.554 268.127 191.314C268.727 191.05 269.243 190.702 269.675 190.27C270.107 189.814 270.431 189.298 270.647 188.722C270.887 188.122 271.007 187.498 271.007 186.85ZM318.45 179.902C318.45 179.47 318.354 179.014 318.162 178.534C317.97 178.054 317.682 177.622 317.298 177.238C316.914 176.83 316.422 176.506 315.822 176.266C315.222 176.002 314.526 175.87 313.734 175.87L287.814 175.906C287.286 175.906 286.782 175.978 286.302 176.122C285.846 176.266 285.438 176.482 285.078 176.77C284.718 177.034 284.43 177.37 284.214 177.778C283.998 178.186 283.89 178.666 283.89 179.218C283.89 180.778 285.258 181.558 287.994 181.558L315.354 181.522C316.506 181.522 317.574 181.666 318.558 181.954C319.542 182.242 320.406 182.686 321.15 183.286C321.894 183.886 322.47 184.642 322.878 185.554C323.31 186.442 323.526 187.486 323.526 188.686C323.526 189.79 323.31 190.834 322.878 191.818C322.47 192.802 321.894 193.666 321.15 194.41C320.43 195.13 319.578 195.706 318.594 196.138C317.634 196.546 316.59 196.75 315.462 196.75H287.382C286.134 196.75 284.994 196.486 283.962 195.958C282.954 195.406 282.078 194.698 281.334 193.834C280.59 192.97 280.014 191.998 279.606 190.918C279.198 189.838 278.994 188.758 278.994 187.678H284.07C284.07 188.11 284.154 188.566 284.322 189.046C284.49 189.502 284.754 189.934 285.114 190.342C285.498 190.726 285.99 191.05 286.59 191.314C287.214 191.554 287.958 191.674 288.822 191.674H314.454C315.03 191.674 315.57 191.59 316.074 191.422C316.578 191.23 317.01 190.99 317.37 190.702C317.73 190.39 318.006 190.042 318.198 189.658C318.414 189.25 318.522 188.83 318.522 188.398C318.522 187.462 318.162 186.862 317.442 186.598C316.746 186.334 315.75 186.202 314.454 186.202H287.49C286.386 186.202 285.318 186.058 284.286 185.77C283.254 185.458 282.342 185.002 281.55 184.402C280.782 183.778 280.158 183.01 279.678 182.098C279.222 181.186 278.994 180.118 278.994 178.894C278.994 177.766 279.198 176.722 279.606 175.762C280.038 174.778 280.614 173.926 281.334 173.206C282.078 172.462 282.942 171.886 283.926 171.478C284.91 171.046 285.954 170.83 287.058 170.83H315.138C316.386 170.83 317.526 171.106 318.558 171.658C319.59 172.186 320.466 172.882 321.186 173.746C321.93 174.61 322.506 175.582 322.914 176.662C323.322 177.742 323.526 178.822 323.526 179.902H318.45Z" fill="white"/>
</svg>
